<svg xmlns="http://www.w3.org/2000/svg" xmlns:xlink="http://www.w3.org/1999/xlink" viewBox="0 0 92.42 17.1"><defs><style>.cls-1{fill:none;}.cls-2{clip-path:url(#clip-path);}.cls-3{fill:#fff;}</style><clipPath id="clip-path" transform="translate(0)"><rect class="cls-1" width="92.42" height="17.1"/></clipPath></defs><title>behance</title><g id="Layer_2" data-name="Layer 2"><g id="Layer_1-2" data-name="Layer 1"><g id="Artwork_7" data-name="Artwork 7"><g class="cls-2"><g class="cls-2"><path class="cls-3" d="M7.92,0A10.47,10.47,0,0,1,10.1.21a4.75,4.75,0,0,1,1.7.7,3.27,3.27,0,0,1,1.1,1.28,4.55,4.55,0,0,1,.38,2,3.69,3.69,0,0,1-.57,2.11A4.26,4.26,0,0,1,11,7.66,4,4,0,0,1,13.3,9.22a4.65,4.65,0,0,1,.76,2.69,4.7,4.7,0,0,1-.49,2.2,4.26,4.26,0,0,1-1.33,1.52,5.47,5.47,0,0,1-1.91.87,8.44,8.44,0,0,1-2.19.29H0V0ZM7.44,6.78a2.63,2.63,0,0,0,1.62-.47,1.75,1.75,0,0,0,.63-1.53,2,2,0,0,0-.2-1,1.45,1.45,0,0,0-.57-.58,2.31,2.31,0,0,0-.81-.3,5,5,0,0,0-1-.08H3.7V6.78Zm.2,7.15a4.37,4.37,0,0,0,1-.11,2.41,2.41,0,0,0,.87-.35,1.85,1.85,0,0,0,.6-.67,2.32,2.32,0,0,0,.22-1.09,2.16,2.16,0,0,0-.73-1.85,3.09,3.09,0,0,0-1.93-.55h-4v4.62Z" transform="translate(0)"/><path class="cls-3" d="M19.33,13.87a3,3,0,0,0,2.16.74,3,3,0,0,0,1.74-.51A2.13,2.13,0,0,0,24.12,13h2.94a5.58,5.58,0,0,1-2.17,3.14,6.29,6.29,0,0,1-3.52.94,6.94,6.94,0,0,1-2.59-.46,5.56,5.56,0,0,1-2-1.3,6.12,6.12,0,0,1-1.24-2,7.41,7.41,0,0,1-.43-2.59,7,7,0,0,1,.45-2.54,5.92,5.92,0,0,1,1.27-2,6.09,6.09,0,0,1,2-1.36,6.27,6.27,0,0,1,2.53-.49,5.85,5.85,0,0,1,2.71.6A5.47,5.47,0,0,1,26,6.5,6.45,6.45,0,0,1,27,8.81a8.62,8.62,0,0,1,.23,2.7H18.5a3.37,3.37,0,0,0,.83,2.36m3.83-6.38a2.49,2.49,0,0,0-1.89-.68A2.87,2.87,0,0,0,20,7.08a2.75,2.75,0,0,0-.85.67,2.37,2.37,0,0,0-.45.86,4.43,4.43,0,0,0-.15.8h5.43a3.23,3.23,0,0,0-.77-1.92" transform="translate(0)"/><path class="cls-3" d="M32,0V6.33h.08A3.77,3.77,0,0,1,33.71,4.8a4.39,4.39,0,0,1,1.92-.48,5.71,5.71,0,0,1,2.2.36,3.25,3.25,0,0,1,1.35,1,3.88,3.88,0,0,1,.69,1.57,10.07,10.07,0,0,1,.2,2.06v7.47H36.72V9.92a4.27,4.27,0,0,0-.47-2.24,1.83,1.83,0,0,0-1.67-.74,2.27,2.27,0,0,0-1.95.81A4.41,4.41,0,0,0,32,10.42v6.37H28.66V0Z" transform="translate(0)"/><path class="cls-3" d="M42.45,6.41a3.91,3.91,0,0,1,1.31-1.25,5.78,5.78,0,0,1,1.8-.67,9.79,9.79,0,0,1,2-.2,13.13,13.13,0,0,1,1.86.13,5.41,5.41,0,0,1,1.71.5A3.36,3.36,0,0,1,52.41,6a2.88,2.88,0,0,1,.5,1.77v6.34A13.14,13.14,0,0,0,53,15.66a2.83,2.83,0,0,0,.4,1.14H50a1.69,1.69,0,0,1-.22-.57q-.06-.3-.09-.6a4.38,4.38,0,0,1-1.88,1.16,7.81,7.81,0,0,1-2.2.32A6,6,0,0,1,44,16.89a3.6,3.6,0,0,1-1.31-.66,3.06,3.06,0,0,1-.88-1.13,3.88,3.88,0,0,1-.32-1.63,3.43,3.43,0,0,1,.37-1.7,3,3,0,0,1,.94-1.08,4.49,4.49,0,0,1,1.31-.6c.5-.13,1-.24,1.49-.32s1-.14,1.48-.18a8.55,8.55,0,0,0,1.3-.22A2.23,2.23,0,0,0,49.25,9a.92.92,0,0,0,.31-.79,1.86,1.86,0,0,0-.18-.86,1.38,1.38,0,0,0-.47-.49,1.85,1.85,0,0,0-.67-.24,5.49,5.49,0,0,0-.83-.06A2.49,2.49,0,0,0,45.87,7a1.92,1.92,0,0,0-.66,1.42H41.86a3.88,3.88,0,0,1,.59-2M49,11.14a6.11,6.11,0,0,1-.68.18l-.77.12c-.26,0-.53.06-.79.11a6.17,6.17,0,0,0-.74.19,2.08,2.08,0,0,0-.63.32,1.49,1.49,0,0,0-.43.5,1.64,1.64,0,0,0-.17.78,1.54,1.54,0,0,0,.17.75,1.14,1.14,0,0,0,.44.48,1.74,1.74,0,0,0,.66.25,3.94,3.94,0,0,0,.77.07,2.91,2.91,0,0,0,1.52-.33,2.17,2.17,0,0,0,.8-.79,2.34,2.34,0,0,0,.31-.92,5,5,0,0,0,.07-.76V10.84a1.53,1.53,0,0,1-.53.3" transform="translate(0)"/><path class="cls-3" d="M57.91,4.64V6.33H58A3.76,3.76,0,0,1,59.63,4.8a4.82,4.82,0,0,1,2.07-.48,5.68,5.68,0,0,1,2.2.36,3.22,3.22,0,0,1,1.36,1A3.86,3.86,0,0,1,66,7.27a9.23,9.23,0,0,1,.21,2.05v7.47H62.8V9.92a4.27,4.27,0,0,0-.47-2.24,1.88,1.88,0,0,0-1.67-.81,2.36,2.36,0,0,0-2,.88,4.49,4.49,0,0,0-.61,2.67v6.37H54.75V4.64Z" transform="translate(0)"/><path class="cls-3" d="M73.59,6.81a2.35,2.35,0,0,0-1.34.36,3,3,0,0,0-.89.95,4,4,0,0,0-.48,1.27,7.18,7.18,0,0,0-.14,1.38,6.93,6.93,0,0,0,.14,1.34,4.6,4.6,0,0,0,.46,1.24,2.74,2.74,0,0,0,.86.9,2.32,2.32,0,0,0,1.31.36,2.46,2.46,0,0,0,1.85-.67,3.2,3.2,0,0,0,.81-1.8H79.4a5.54,5.54,0,0,1-1.88,3.69,6.09,6.09,0,0,1-4,1.27A6.63,6.63,0,0,1,71,16.64a5.7,5.7,0,0,1-2-1.28,6.14,6.14,0,0,1-1.25-2,7,7,0,0,1-.44-2.51,8.22,8.22,0,0,1,.41-2.62A5.78,5.78,0,0,1,69,6.16a5.49,5.49,0,0,1,2-1.38,6.65,6.65,0,0,1,2.64-.49,8,8,0,0,1,2.08.28,5.31,5.31,0,0,1,1.79.86,4.45,4.45,0,0,1,1.85,3.46H76.05a2.22,2.22,0,0,0-2.46-2.08" transform="translate(0)"/><rect class="cls-3" x="17.82" y="1.13" width="6.81" height="1.66"/><path class="cls-3" d="M84.42,13.87a3.06,3.06,0,0,0,2.2.74,3,3,0,0,0,1.74-.51A2.13,2.13,0,0,0,89.25,13h2.94A5.62,5.62,0,0,1,90,16.16a6.35,6.35,0,0,1-3.53.94,6.87,6.87,0,0,1-2.59-.46,5.56,5.56,0,0,1-2-1.3,6,6,0,0,1-1.24-2,7.41,7.41,0,0,1-.43-2.59,7.25,7.25,0,0,1,.44-2.54,6.1,6.1,0,0,1,1.28-2,6.2,6.2,0,0,1,2-1.36,6.31,6.31,0,0,1,2.53-.49,5.75,5.75,0,0,1,2.7.6A5.5,5.5,0,0,1,91.1,6.5a6.62,6.62,0,0,1,1.07,2.31,8.62,8.62,0,0,1,.23,2.7H83.59a3.37,3.37,0,0,0,.83,2.36m3.87-6.38a2.49,2.49,0,0,0-1.88-.68,3,3,0,0,0-1.34.27,2.72,2.72,0,0,0-.87.67,2.4,2.4,0,0,0-.46.86,4.43,4.43,0,0,0-.15.8h5.48a3.3,3.3,0,0,0-.78-1.92" transform="translate(0)"/></g></g></g></g></g></svg>