<svg xmlns="http://www.w3.org/2000/svg" xmlns:xlink="http://www.w3.org/1999/xlink" viewBox="0 0 22.95 22.95"><defs><style>.cls-1{fill:none;}.cls-2{clip-path:url(#clip-path);}.cls-3{fill:#fff;}</style><clipPath id="clip-path"><rect class="cls-1" width="22.95" height="22.95"/></clipPath></defs><title>linkedin</title><g id="Layer_2" data-name="Layer 2"><g id="Layer_1-2" data-name="Layer 1"><g id="Artwork_6" data-name="Artwork 6"><g class="cls-2"><g class="cls-2"><path class="cls-3" d="M21.25,0H1.69A1.67,1.67,0,0,0,0,1.65V21.29A1.68,1.68,0,0,0,1.69,23H21.25A1.68,1.68,0,0,0,23,21.29V1.65A1.68,1.68,0,0,0,21.25,0M6.81,19.56H3.4V8.6H6.81ZM5.11,7.11a2,2,0,1,1,2-2,2,2,0,0,1-2,2M19.56,19.56H16.15V14.23c0-1.27,0-2.9-1.76-2.9s-2.05,1.38-2.05,2.81v5.42H8.94V8.6h3.27v1.5h0a3.59,3.59,0,0,1,3.22-1.77c3.45,0,4.09,2.27,4.09,5.22Z"/></g></g></g></g></g></svg>