<svg xmlns="http://www.w3.org/2000/svg" viewBox="0 0 24.13 24.13"><defs><style>.cls-1{fill:#fff;fill-rule:evenodd;}</style></defs><title>ball</title><g id="Layer_2" data-name="Layer 2"><g id="Layer_1-2" data-name="Layer 1"><g id="ball"><path class="cls-1" d="M12.07,0A12.07,12.07,0,1,0,24.13,12.07,12.08,12.08,0,0,0,12.07,0Zm8,5.56A10.24,10.24,0,0,1,22.37,12a24.21,24.21,0,0,0-7.17-.33c-.08-.17-.15-.35-.23-.53-.21-.5-.44-1-.68-1.49A13.6,13.6,0,0,0,20,5.56Zm-8-3.78A10.27,10.27,0,0,1,18.9,4.37,11.68,11.68,0,0,1,13.5,8.1a53.59,53.59,0,0,0-3.85-6A10.69,10.69,0,0,1,12.07,1.78Zm-4.39,1a64.81,64.81,0,0,1,3.83,6A38.16,38.16,0,0,1,2,10,10.35,10.35,0,0,1,7.68,2.75ZM1.76,12.08c0-.1,0-.21,0-.31A38.07,38.07,0,0,0,12.36,10.3c.29.58.57,1.16.83,1.75l-.4.12A16.33,16.33,0,0,0,4.41,19,10.22,10.22,0,0,1,1.76,12.08ZM12.07,22.39a10.21,10.21,0,0,1-6.33-2.18c.19-.38,2.27-4.41,8.09-6.43l.06,0a42.44,42.44,0,0,1,2.2,7.82A10.17,10.17,0,0,1,12.07,22.39Zm5.76-1.76a45,45,0,0,0-2-7.35,15.09,15.09,0,0,1,6.42.44A10.34,10.34,0,0,1,17.83,20.63Z"/></g></g></g></svg>