<svg xmlns="http://www.w3.org/2000/svg" xmlns:xlink="http://www.w3.org/1999/xlink" viewBox="0 0 23.46 22.88"><defs><style>.cls-1{fill:none;}.cls-2{clip-path:url(#clip-path);}.cls-3,.cls-4{fill:#fff;}.cls-3{fill-rule:evenodd;}</style><clipPath id="clip-path" transform="translate(0 0)"><rect class="cls-1" width="23.46" height="22.88"/></clipPath></defs><title>github</title><g id="Layer_2" data-name="Layer 2"><g id="Layer_1-2" data-name="Layer 1"><g id="Artwork_2" data-name="Artwork 2"><g class="cls-2"><g class="cls-2"><path class="cls-3" d="M11.73,0A11.73,11.73,0,0,0,8,22.86c.59.11.8-.25.8-.56s0-1.21,0-2.19c-3.27.71-3.95-1.38-3.95-1.38A3.13,3.13,0,0,0,3.55,17c-1.06-.72.08-.71.08-.71a2.46,2.46,0,0,1,1.8,1.21,2.51,2.51,0,0,0,3.42,1,2.44,2.44,0,0,1,.74-1.56c-2.6-.3-5.34-1.31-5.34-5.8A4.54,4.54,0,0,1,5.45,8a4.22,4.22,0,0,1,.12-3.1s1-.32,3.22,1.2a11.52,11.52,0,0,1,2.94-.4,11.52,11.52,0,0,1,2.94.4c2.24-1.52,3.22-1.2,3.22-1.2A4.22,4.22,0,0,1,18,8a4.54,4.54,0,0,1,1.21,3.15c0,4.5-2.75,5.5-5.36,5.79a2.79,2.79,0,0,1,.79,2.17c0,1.57,0,2.83,0,3.22s.21.68.81.56A11.73,11.73,0,0,0,11.73,0" transform="translate(0 0)"/><path class="cls-4" d="M4.44,16.84c0,.06-.11.08-.2,0s-.13-.12-.1-.18.11-.07.2,0,.13.11.1.17" transform="translate(0 0)"/><path class="cls-4" d="M4.92,17.37c-.06.06-.17,0-.24-.05a.18.18,0,0,1,0-.24c.06-.06.17,0,.24.05s.1.19,0,.24" transform="translate(0 0)"/><path class="cls-4" d="M5.38,18.05c-.07.05-.19,0-.26-.1s-.07-.23,0-.28.19,0,.26.1a.21.21,0,0,1,0,.28" transform="translate(0 0)"/><path class="cls-4" d="M6,18.7c-.06.07-.2.05-.3,0s-.13-.23-.06-.3.2-.05.3,0,.13.23.06.3" transform="translate(0 0)"/><path class="cls-4" d="M6.89,19.08c0,.09-.16.13-.29.09s-.22-.14-.2-.24.16-.13.3-.09.22.15.19.24" transform="translate(0 0)"/><path class="cls-4" d="M7.85,19.15c0,.1-.11.18-.25.18a.24.24,0,0,1-.26-.17c0-.1.11-.18.26-.18s.25.08.25.17" transform="translate(0 0)"/><path class="cls-4" d="M8.74,19c0,.09-.08.19-.22.22s-.26,0-.28-.13.09-.19.22-.22.26,0,.28.13" transform="translate(0 0)"/></g></g></g></g></g></svg>