<svg xmlns="http://www.w3.org/2000/svg" viewBox="0 0 26 26"><defs><style>.cls-1{fill:#fff;}</style></defs><title>insta</title><g id="Layer_2" data-name="Layer 2"><g id="Layer_1-2" data-name="Layer 1"><path class="cls-1" d="M13,2.34c3.47,0,3.88,0,5.25.08a7.22,7.22,0,0,1,2.42.45,3.89,3.89,0,0,1,1.49,1,3.89,3.89,0,0,1,1,1.49,7.22,7.22,0,0,1,.45,2.42c.06,1.37.08,1.78.08,5.25s0,3.88-.08,5.25a7.22,7.22,0,0,1-.45,2.42,4.3,4.3,0,0,1-2.46,2.46,7.22,7.22,0,0,1-2.42.45c-1.37.06-1.78.08-5.25.08s-3.88,0-5.25-.08a7.22,7.22,0,0,1-2.42-.45,3.89,3.89,0,0,1-1.49-1,3.89,3.89,0,0,1-1-1.49,7.22,7.22,0,0,1-.45-2.42c-.06-1.37-.08-1.78-.08-5.25s0-3.88.08-5.25a7.22,7.22,0,0,1,.45-2.42,3.89,3.89,0,0,1,1-1.49,3.89,3.89,0,0,1,1.49-1,7.22,7.22,0,0,1,2.42-.45c1.37-.06,1.78-.08,5.25-.08M13,0C9.47,0,9,0,7.64.08a9.57,9.57,0,0,0-3.16.6,6.39,6.39,0,0,0-2.3,1.5,6.39,6.39,0,0,0-1.5,2.3,9.57,9.57,0,0,0-.6,3.16C0,9,0,9.47,0,13s0,4,.08,5.36a9.57,9.57,0,0,0,.6,3.16,6.39,6.39,0,0,0,1.5,2.3,6.39,6.39,0,0,0,2.3,1.5,9.57,9.57,0,0,0,3.16.6C9,26,9.47,26,13,26s4,0,5.36-.08a9.57,9.57,0,0,0,3.16-.6,6.66,6.66,0,0,0,3.8-3.8,9.57,9.57,0,0,0,.6-3.16C26,17,26,16.53,26,13s0-4-.08-5.36a9.57,9.57,0,0,0-.6-3.16,6.39,6.39,0,0,0-1.5-2.3,6.39,6.39,0,0,0-2.3-1.5,9.57,9.57,0,0,0-3.16-.6C17,0,16.53,0,13,0Z"/><path class="cls-1" d="M13,6.32A6.68,6.68,0,1,0,19.68,13,6.68,6.68,0,0,0,13,6.32Zm0,11A4.33,4.33,0,1,1,17.33,13,4.33,4.33,0,0,1,13,17.33Z"/><circle class="cls-1" cx="19.94" cy="6.06" r="1.56"/></g></g></svg>