<svg xmlns="http://www.w3.org/2000/svg" viewBox="0 0 65.51 54"><defs><style>.cls-1{fill:#fff;}</style></defs><title>logo</title><g id="Layer_2" data-name="Layer 2"><g id="Layer_1-2" data-name="Layer 1"><path class="cls-1" d="M28.05,54c.52,0,1.05-.05,1.59-.05A23.79,23.79,0,0,0,40,51.29a38.9,38.9,0,0,0,12.75-9.62c3.39-4.15,4.49-9.43,3.27-15.62a41.43,41.43,0,0,0-6.71-14.92C46.86,7.62,42.73,3,36.89,1c-4.58-1.56-9.74-1.35-15.77.65C14.48,3.88,9.53,6.64,6,10.12a20.11,20.11,0,0,0-6,15C.17,36.55,6.44,49.84,18.09,53.23h0a2.79,2.79,0,0,0,3.47-1.94,2.41,2.41,0,0,0-1.72-3.09,18,18,0,0,1-9-6.42,7.06,7.06,0,0,0,.22-1.91A19.32,19.32,0,0,1,11.54,36c.31-1.44.74-3.13,1.3-5.05s.83-2.91.83-3c.17-.69.3-1,.37-.93a21.14,21.14,0,0,1,.05,2.44c.06.72.09,1.76.09,3.13s0,2.44.08,3.22a16.38,16.38,0,0,0,.38,2.46,5,5,0,0,0,1.08,2.5c.53.39,1.21,1.2,2,1.2H18c1.12,0,1.73-2.09,1.84-4.88A34.7,34.7,0,0,1,21.61,28a32.65,32.65,0,0,1,1.14-3.1c.17,0,.26.46.29,1.62.11,3.34.18,6.66.2,10s.05,5.83.05,7.42,0,3.1.08,4.55c0,.49,0,.92.08,1.32a3,3,0,0,0,0,1.59,2.81,2.81,0,0,0,2.06,2l.32.06.34.12M21.87,14.71A10.39,10.39,0,0,0,21,16.84q-.59,1.8-1.17,3.39c-.39,1.06-.7,1.59-.92,1.59s-.28-.44-.33-1.13-.13-1.45-.21-2.26A3.72,3.72,0,0,0,18,16.88a1.61,1.61,0,0,0-1.42-.75,4.64,4.64,0,0,0-1.92.67,9.58,9.58,0,0,1-1.59.75,3.17,3.17,0,0,1-.88-.16c-.36-.11-.25-.17-.58-.17-1.12,0-1.21,1-1.21,3.09v.84c0,2.34-1.15,5.93-2.51,10.78-.21.74-.63,1.43-.81,2.09a32.74,32.74,0,0,1-1.27-5c-.8-5.24-.17-9.5,2-12.64,2.28-3.33,5.92-6,11.52-8.27,4.07-1.68,8.42-3.18,12.74-2.73C37,5.91,40.66,9,42.86,11.53A37.45,37.45,0,0,1,49.6,23.4c1.9,5.21,2.08,9.11.55,12.3-1.68,3.52-5.36,6.8-11.24,10a19.62,19.62,0,0,1-10,2.73c-.85-.84-1.5-3.64-1.5-6.65V16.05c0-2.45-.68-3.68-1.85-3.68S23.15,13.15,21.87,14.71Z"/><path class="cls-1" d="M64,38.89a12.53,12.53,0,0,0-7.09,3c-1.56,1.33.7,3.58,2.26,2.26a8.74,8.74,0,0,1,4.83-2C66,41.89,66,38.7,64,38.89Z"/></g></g></svg>