<svg xmlns="http://www.w3.org/2000/svg" viewBox="0 0 24 24"><defs><style>.cls-1{fill:#fff;}</style></defs><title>medium</title><g id="Layer_2" data-name="Layer 2"><g id="Layer_1-2" data-name="Layer 1"><g id="Monogram"><path class="cls-1" d="M0,0V24H24V0ZM19.94,5.69,18.65,6.92a.36.36,0,0,0-.14.36v9.07a.36.36,0,0,0,.14.36l1.26,1.23v.28H13.59v-.28l1.3-1.26c.13-.13.13-.17.13-.36V9l-3.62,9.2h-.49L6.69,9v6.16a.88.88,0,0,0,.23.71l1.7,2.05v.28H3.82v-.28l1.69-2.05a.84.84,0,0,0,.22-.71V8a.62.62,0,0,0-.21-.53L4,5.69V5.42H8.69l3.62,7.92,3.17-7.92h4.46Z"/></g></g></g></svg>