<svg xmlns="http://www.w3.org/2000/svg" xmlns:xlink="http://www.w3.org/1999/xlink" viewBox="0 0 27.92 22.69"><defs><style>.cls-1{fill:none;}.cls-2{clip-path:url(#clip-path);}.cls-3{fill:#fff;}</style><clipPath id="clip-path" transform="translate(0 0)"><rect class="cls-1" width="27.92" height="22.69"/></clipPath></defs><title>twitt</title><g id="Layer_2" data-name="Layer 2"><g id="Layer_1-2" data-name="Layer 1"><g id="Artwork_5" data-name="Artwork 5"><g class="cls-2"><g class="cls-2"><path class="cls-3" d="M8.78,22.69c10.53,0,16.29-8.73,16.29-16.3,0-.25,0-.49,0-.74a11.83,11.83,0,0,0,2.86-3,11.79,11.79,0,0,1-3.29.9A5.71,5.71,0,0,0,27.14.42a11.4,11.4,0,0,1-3.63,1.39A5.73,5.73,0,0,0,13.6,5.73,5.57,5.57,0,0,0,13.75,7a16.3,16.3,0,0,1-11.81-6A5.74,5.74,0,0,0,3.72,8.69,5.58,5.58,0,0,1,1.12,8v.07a5.74,5.74,0,0,0,4.6,5.62,5.85,5.85,0,0,1-1.51.2,5.49,5.49,0,0,1-1.08-.11,5.72,5.72,0,0,0,5.35,4,11.46,11.46,0,0,1-7.11,2.45A10.29,10.29,0,0,1,0,20.11a16.15,16.15,0,0,0,8.78,2.58" transform="translate(0 0)"/></g></g></g></g></g></svg>